<svg xmlns="http://www.w3.org/2000/svg" viewBox="0 0 512 512" role="img" aria-label="Gaming Server">
  <defs>
    <radialGradient id="bg" cx="50%" cy="20%" r="80%">
      <stop offset="0" stop-color="#006aa2"/>
      <stop offset="0.52" stop-color="#00334c"/>
      <stop offset="1" stop-color="#021018"/>
    </radialGradient>
    <linearGradient id="text" x1="40" x2="470" y1="120" y2="280" gradientUnits="userSpaceOnUse">
      <stop offset="0" stop-color="#7357e8"/>
      <stop offset="0.28" stop-color="#f1b7a4"/>
      <stop offset="0.55" stop-color="#e8f89b"/>
      <stop offset="0.78" stop-color="#70c7ff"/>
      <stop offset="1" stop-color="#8c2be8"/>
    </linearGradient>
    <filter id="glow" x="-20%" y="-20%" width="140%" height="140%">
      <feGaussianBlur stdDeviation="10" result="blur"/>
      <feMerge><feMergeNode in="blur"/><feMergeNode in="SourceGraphic"/></feMerge>
    </filter>
  </defs>
  <rect width="512" height="512" fill="url(#bg)"/>
  <circle cx="256" cy="372" r="190" fill="#03d5ff" opacity="0.16" filter="url(#glow)"/>
  <g fill="#03080d" opacity="0.9">
    <path d="M94 345c25-35 68-44 116-33h92c48-11 91-2 116 33 17 24 24 57 14 83-9 22-29 33-53 23-22-9-43-32-58-57H191c-15 25-36 48-58 57-24 10-44-1-53-23-10-26-3-59 14-83z"/>
    <rect x="161" y="307" width="72" height="23" rx="11"/>
    <rect x="279" y="307" width="72" height="23" rx="11"/>
  </g>
  <g font-family="Inter, Arial Black, Arial, sans-serif" font-weight="900" font-size="80" letter-spacing="3" fill="url(#text)" filter="url(#glow)">
    <text x="49" y="177">GAMING</text>
    <text x="58" y="262">SERVER</text>
  </g>
</svg>
